<svg xmlns="http://www.w3.org/2000/svg" width="16" height="17" viewBox="0 0 16 17" fill="none">
  <path d="M6.44445 4.94445C6.44431 5.87154 6.72032 6.77767 7.23727 7.54726C7.75421 8.31685 8.48867 8.91502 9.34697 9.26549C10.2053 9.61596 11.1485 9.70285 12.0564 9.51506C12.9642 9.32727 13.7956 8.87332 14.4444 8.21111V8.27778C14.4444 11.9598 11.4598 14.9444 7.77778 14.9444C4.09578 14.9444 1.11111 11.9598 1.11111 8.27778C1.11111 4.59578 4.09578 1.61111 7.77778 1.61111H7.84445C7.4005 2.04522 7.04793 2.56378 6.80749 3.13626C6.56705 3.70873 6.44361 4.32353 6.44445 4.94445ZM2.44445 8.27778C2.44396 9.46777 2.84147 10.6237 3.57371 11.5618C4.30595 12.4998 5.33087 13.166 6.48539 13.4543C7.63991 13.7427 8.8577 13.6367 9.94501 13.1531C11.0323 12.6695 11.9267 11.8362 12.4858 10.7858C11.4907 11.0202 10.4523 10.9965 9.469 10.7169C8.48569 10.4374 7.59012 9.91117 6.86726 9.18831C6.14439 8.46545 5.61821 7.56988 5.33864 6.58657C5.05906 5.60326 5.03536 4.56482 5.26978 3.56978C4.41617 4.02454 3.7023 4.70289 3.20462 5.53221C2.70693 6.36153 2.44417 7.31059 2.44445 8.27778Z" fill="black"/>
</svg>