<svg xmlns="http://www.w3.org/2000/svg" width="16" height="17" viewBox="0 0 16 17" fill="none">
  <path d="M7.99996 12.5C6.93909 12.5 5.92168 12.0786 5.17153 11.3284C4.42139 10.5783 3.99996 9.56087 3.99996 8.50001C3.99996 7.43914 4.42139 6.42172 5.17153 5.67158C5.92168 4.92143 6.93909 4.50001 7.99996 4.50001C9.06083 4.50001 10.0782 4.92143 10.8284 5.67158C11.5785 6.42172 12 7.43914 12 8.50001C12 9.56087 11.5785 10.5783 10.8284 11.3284C10.0782 12.0786 9.06083 12.5 7.99996 12.5ZM7.99996 11.1667C8.7072 11.1667 9.38548 10.8857 9.88558 10.3856C10.3857 9.88553 10.6666 9.20725 10.6666 8.50001C10.6666 7.79276 10.3857 7.11448 9.88558 6.61439C9.38548 6.11429 8.7072 5.83334 7.99996 5.83334C7.29272 5.83334 6.61444 6.11429 6.11434 6.61439C5.61424 7.11448 5.33329 7.79276 5.33329 8.50001C5.33329 9.20725 5.61424 9.88553 6.11434 10.3856C6.61444 10.8857 7.29272 11.1667 7.99996 11.1667ZM7.33329 1.16667H8.66663V3.16667H7.33329V1.16667ZM7.33329 13.8333H8.66663V15.8333H7.33329V13.8333ZM2.34329 3.78601L3.28596 2.84334L4.69996 4.25734L3.75729 5.20001L2.34329 3.78601ZM11.3 12.7427L12.2426 11.8L13.6566 13.214L12.714 14.1567L11.3 12.7427ZM12.714 2.84267L13.6566 3.78601L12.2426 5.20001L11.3 4.25734L12.714 2.84334V2.84267ZM3.75729 11.8L4.69996 12.7427L3.28596 14.1567L2.34329 13.214L3.75729 11.8ZM15.3333 7.83334V9.16667H13.3333V7.83334H15.3333ZM2.66663 7.83334V9.16667H0.666626V7.83334H2.66663Z" fill="white"/>
</svg>